<?xml version="1.0" encoding="UTF-8"?>
<svg width="375px" height="155px" viewBox="0 0 375 155" version="1.1" xmlns="http://www.w3.org/2000/svg" xmlns:xlink="http://www.w3.org/1999/xlink">
    <!-- Generator: Sketch 59.1 (86144) - https://sketch.com -->
    <title>Group</title>
    <desc>Created with Sketch.</desc>
    <g id="Page-1" stroke="none" stroke-width="1" fill="none" fill-rule="evenodd">
        <g id="Artboard" transform="translate(-153.000000, -124.000000)">
            <g id="Group" transform="translate(151.000000, 105.000000)">
                <g id="Group-2" transform="translate(2.000000, 19.000000)" fill-rule="nonzero">
                    <circle id="Oval" fill="#0987A0" cx="14.5" cy="14.5" r="7.5"></circle>
                    <circle id="Oval" fill="#B7791F" cx="73.5" cy="58.5" r="7.5"></circle>
                    <circle id="Oval" fill="#319795" cx="14.5" cy="87.5" r="7.5"></circle>
                    <path d="M73.3333333,43.7142857 C67.8763021,43.7142857 63.1783854,46.709625 60.6575521,51.1031384 C59.9986979,51.0569196 59.3541667,51 58.6666667,51 C43.6491458,51 29.3977292,39.6338304 24.198625,25.5639777 C27.3245729,22.8923973 29.3333333,18.9791719 29.3333333,14.5714286 C29.3333333,6.528 22.7626667,0 14.6666667,0 C6.57066667,0 0,6.528 0,14.5714286 C0,19.9468058 2.96129167,24.5963438 7.33333333,27.1257388 L7.33333333,74.8777902 C2.96129167,77.4036563 0,82.0496652 0,87.4285714 C0,95.468471 6.57066667,102 14.6666667,102 C22.7626667,102 29.3333333,95.468471 29.3333333,87.4285714 C29.3333333,82.0496652 26.3720417,77.4036563 22,74.8777902 L22,48.6627656 C31.642875,58.7979911 44.9596354,65.5714286 58.6666667,65.5714286 C59.3971354,65.5714286 59.9986979,65.521567 60.6575521,65.500279 C63.1927083,69.8759196 67.890625,72.8571429 73.3333333,72.8571429 C81.4257813,72.8571429 88,66.3256138 88,58.2857143 C88,50.2422857 81.4257813,43.7142857 73.3333333,43.7142857 Z M14.6666667,94.7142857 C10.6205,94.7142857 7.33333333,91.4556362 7.33333333,87.4285714 C7.33333333,83.4086786 10.6205,80.1428571 14.6666667,80.1428571 C18.7236042,80.1428571 22,83.4086786 22,87.4285714 C22,91.4556362 18.7236042,94.7142857 14.6666667,94.7142857 Z M14.6666667,21.8571429 C10.6205,21.8571429 7.33333333,18.6020223 7.33333333,14.5714286 C7.33333333,10.5408348 10.6205,7.28571429 14.6666667,7.28571429 C18.7236042,7.28571429 22,10.5408348 22,14.5714286 C22,18.6020223 18.7236042,21.8571429 14.6666667,21.8571429 Z M73.3333333,65.5714286 C69.2871667,65.5714286 66,62.312779 66,58.2857143 C66,54.2551205 69.2871667,51 73.3333333,51 C77.3867188,51 80.6666667,54.2551205 80.6666667,58.2857143 C80.6666667,62.312779 77.3867188,65.5714286 73.3333333,65.5714286 Z" id="Shape" fill="#4A5568"></path>
                </g>
                <text id="oria" font-family="Rubik-Medium, Rubik" font-size="124" font-weight="400" fill="#AAB7C7">
                    <tspan x="152" y="116">oria</tspan>
                </text>
                <text id="T" font-family="Rubik-Medium, Rubik" font-size="124" font-weight="400" fill="#AAB7C7">
                    <tspan x="88" y="116">T</tspan>
                </text>
                <text id="Git-Commit-History" font-family="Rubik-Regular, Rubik" font-size="43" font-weight="normal" fill="#E6EBF2">
                    <tspan x="0" y="165">Git Commit History</tspan>
                </text>
            </g>
        </g>
    </g>
</svg>